<?xml version="1.0" encoding="UTF-8"?> <!-- Generator: Adobe Illustrator 24.0.0, SVG Export Plug-In . SVG Version: 6.00 Build 0) --> <svg xmlns="http://www.w3.org/2000/svg" xmlns:xlink="http://www.w3.org/1999/xlink" id="Layer_1" x="0px" y="0px" viewBox="0 0 535.42 603.49" style="enable-background:new 0 0 535.42 603.49;" xml:space="preserve"> <style type="text/css"> .st0{fill:#FFFFFF;} .st1{fill:#FFC325;} .st2{fill:#143D8C;} .st3{fill:#CD6F19;} .st4{fill:#143D8C;stroke:#231F20;stroke-width:6.7624;stroke-linejoin:round;} .st5{fill:#143D8C;stroke:#FFC325;stroke-width:8.064;stroke-linejoin:round;} .st6{fill:#143D8C;stroke:#FFFFFF;stroke-width:3.024;stroke-linejoin:round;} .st7{fill:#143D8C;stroke:#FFFFFF;stroke-width:2;} </style> <path class="st0" d="M523.42,603.49H12c-6.6,0-12-5.4-12-12V12C0,5.4,5.4,0,12,0h511.42c6.6,0,12,5.4,12,12v579.49 C535.42,598.09,530.02,603.49,523.42,603.49z"></path> <g> <rect x="51.22" y="56.38" class="st1" width="432.13" height="431.09"></rect> <path class="st2" d="M483.35,61.1c-31.95,0.74-69.39,7.26-97.56,20.2c0,0-105.74,67.43-153.42,70.3c0,0-69.29,12.91-123.28-27.74 c0,0-33.75-30.83-28.8-68.13h403.06V61.1z"></path> <path class="st0" d="M354.67,101.28c-24.87,14.63-72.05,53.43-96.46,54.61H75.5V53.39h33.8c0,0,1.49,50.15,52.55,76.9 c44.78,23.47,100.46,15.45,152.58-13.42L354.67,101.28z"></path> <path class="st3" d="M483.35,57.54c-63.8,4.09-126.18,27.21-193.38,60.35c-56.13,27.68-107.72,36.17-152.45,13.16 c-51.03-26.24-56.1-75.4-56.1-75.4H51.23v135.94c13.06,6.78,20.82,9.04,33.92,12.57c13.88,3.74,56.98,9.89,93.22,0 c31.33-8.55,51.32-19.9,51.32-19.9c43.34-22.28,76.11-48.85,106.55-68.58c20.88-13.54,44.11-27,80.72-39.06 c23.89-7.87,45.52-11.97,66.4-13.63V57.54z"></path> <polygon class="st2" points="483.71,487.4 486.77,487.4 486.77,53.39 48.65,53.39 48.65,490.46 486.77,490.46 486.77,487.4 483.71,487.4 483.71,484.35 54.77,484.35 54.77,59.51 480.65,59.51 480.65,487.4 483.71,487.4 483.71,484.35 "></polygon> </g> <g> <g> <path class="st4" d="M189.74,342.56l-9.9-0.1v-11.21c0,0-0.09-1.88,0.25-2.67c0.35-0.79,1.53-1.26,1.53-1.26l7.97-2.69l1.31-0.45 v-1.67l0.02-26.25c0.02-0.06,0-0.41,0.7-1.03c0.34-0.3,0.82-0.55,0.82-0.55l27.67-3.8v36.62h19.06v14.95h-18.69v45.96 c0,0,0.35,5.25,4.86,7.39c4.81,2.27,12.33-1.03,12.33-1.03l5.23,10.47c0,0-9.19,15.56-33.47,11.47 c-20.43-3.45-19.71-24.45-19.71-24.45L189.74,342.56z"></path> <path class="st4" d="M278.36,340.41c9.26-0.37,8.32,13.39,8.32,13.39v36.9c0,0-0.53,9.54-6.51,9.77 c-9.6,0.37-9.76-13.02-9.76-13.02v-34.37C270.4,353.08,269.84,340.76,278.36,340.41z M239.18,365.1 c-0.86,30.14,9.98,51.89,39.26,51.32c44.26-0.85,41.32-30.95,42.02-44.43c1.61-30.87-17.74-46.53-41.5-47.18 C253.99,324.12,239.81,342.89,239.18,365.1z"></path> <path class="st4" d="M354.53,367.06v31.92c0,0,0.06,0.97,0.36,1.27c0.3,0.3,0.91,0.54,0.91,0.54l5.08,1.81c0,0,0.65,0.37,1.08,0.9 c0.44,0.54,0.54,1.45,0.54,1.45v10.16h-44.62v-9.61c0,0-0.09-1.18,0.15-1.39c0.24-0.21,1.16-0.82,1.16-0.82l3.84-2.43 c0,0,0.59-0.37,0.62-0.49c0.04-0.12,0.03-0.85,0.03-0.85v-51.87c0,0-0.26-1.75-0.54-2c-0.28-0.24-1.09-1.09-1.09-1.09l-5.49-5.74 c0,0-0.96-0.96-1.08-1.24c-0.12-0.28-0.47-1.39-0.47-1.39l0.15-12.56l36.09,0.08v15.41c0,0,24.85-41.71,55.13-48.42 c47.25-10.47,52.57,23.14,49.87,27.38c-3.24,5.09-29.53-8.31-58.19,3.29C363.98,335.19,354.53,367.06,354.53,367.06z"></path> <path class="st4" d="M401.77,347.29c0,0,1.19-6.4,6.89-6.47c5.43-0.07,6.68,7.13,6.68,7.13v9.25h-13.6L401.77,347.29z M411.52,323.37c-34.33-0.63-42.92,31-43.28,40.98c-0.41,11.86-1.47,50.93,40.16,53.05c28.5,1.46,39.32-21.02,39.32-21.02 l-11.23-9.57c0,0-8.95,11.86-18.94,12.07c-15.81,0.32-16.64-19.35-16.64-19.35v-7.28h45.35 C446.26,372.26,450.25,324.08,411.52,323.37z"></path> <path class="st4" d="M159.59,288.07h12.47v35.13c0,0-12.26,0.04-12.73,0c-0.47-0.04-1.57-0.99-2.65-2.46 c-1.26-1.71-2.09-4.01-2.58-5.25c-4.37-10.93-17.59-18.75-23.78-10.62c-13.95,18.32,17.79,27.47,23.67,30.54 c15.47,8.09,34.92,18.75,30.54,46.58c-4.94,31.35-34.31,37.66-56.25,35.63c-39.75-3.68-56.5-36.92-32.93-55.54 c23.21-18.33,57.09,14.74,45.66,22.45c-6.44,4.34-14.06-9-19.09-0.25c-8.43,14.64,17.26,24.4,26.85,13.63 c15.6-17.53-9.37-34.09-12.22-35.73c-12.77-7.33-53.89-19.69-33.27-58.38c16.95-31.81,51.11-13.55,51.11-13.55L159.59,288.07z"></path> <path class="st4" d="M318.31,311.72l0.08,8.28h-27.56v-7.51c0,0-0.01-1.24,0.03-1.41c0.04-0.17,0.3-0.44,0.3-0.44l1.91-2.66 c0,0,0.17-0.24,0.18-0.36c0.01-0.13,0-0.43,0-0.43l0.01-29.18c0,0,0.18-4.39-3.21-5.14c-1.93-0.43-4.5,1.28-4.5,1.28v33.11 c0,0-0.04,0.22,0,0.36c0.03,0.15,0.13,0.26,0.13,0.26l1.9,2.63c0,0,0.36,0.42,0.41,0.56c0.04,0.13,0,0.38,0,0.38v7.73V320h-27.52 l0.04-7.93c0,0-0.13-0.73,0.06-0.98c0.18-0.25,0.79-0.91,0.79-0.91l1.69-1.95c0,0,0.62-0.53,0.61-0.61c-0.02-0.07,0-1.08,0-1.08 v-51.86c0,0-3.25,0.49-4.26,0.41c-1.61-0.13-4.87-0.41-4.87-0.41v52.27c0,0-0.06,0.58,0,0.67c0.1,0.15,0.23,0.29,0.23,0.29 l2.06,2.25c0,0,0.69,0.77,0.8,0.92c0.23,0.32,0.16,1.66,0.16,1.66V320h-30.03v-8.01c0,0,0.02-0.73,0.09-0.9 c0.1-0.23,0.69-0.7,0.69-0.7l2.81-2.51c0,0,0.23-0.13,0.26-0.26c0.02-0.07,0-0.49,0-0.49v-54.48c-1.56-1.39-9.79-0.26-10.76,0 c-2.92,0.79-9.79,2.77-8.75,12.09c0.89,8,17.56,9.58,17.88,12.51c0.2,1.83-4.37,11.06-22.91,5.83c-6.01-1.69-18.53-12.53-7.1-28.6 c9.5-13.36,29.51-17.43,40.37-16.63c2.89,0.21,20.57,3.28,25.15,3.45c4.1,0.15,15.42-3.04,15.42-3.04h4.67v24.95 c0,0,13.42-5.36,21.5-0.2c8.74,5.59,7.3,15.83,7.3,15.83l-0.01,28.58c0,0-0.02,0.15,0,0.22c0.02,0.08,0.2,0.18,0.2,0.18l3.05,2.65 c0,0,0.65,0.5,0.71,0.67V311.72z"></path> <path class="st4" d="M343.79,270.62c2.89,0.19,4.07,3.54,4.07,3.54v7.19h-8.58v-6.87C339.28,274.48,340.57,270.4,343.79,270.62z M368.56,287.45c-0.11-0.32-0.97-27.78-24.02-28.2c-17.27-0.32-25.66,14.61-26.6,27.77c-1.6,22.63,14.48,33.5,25.85,33.57 c16.73,0.1,24.13-14.05,24.13-14.05l-7.5-6.43c0,0-5.05,7.83-11.48,7.83c-11.63,0-10.3-14.05-10.3-14.05v-3.22h29.82 C368.45,290.67,368.66,287.77,368.56,287.45z"></path> </g> <g> <path class="st5" d="M183.78,339.52l-9.91-0.11V328.2c0,0-0.09-1.88,0.25-2.67c0.34-0.79,1.53-1.26,1.53-1.26l7.97-2.69l1.32-0.44 v-1.67l0.02-26.25c0.02-0.06,0-0.4,0.7-1.02c0.34-0.3,0.82-0.55,0.82-0.55l27.67-3.8v36.62h19.06v14.95h-18.69v45.96 c0,0,0.35,5.25,4.87,7.38c4.81,2.27,12.32-1.03,12.32-1.03l5.23,10.46c0,0-9.19,15.56-33.47,11.47 c-20.43-3.45-19.71-24.45-19.71-24.45L183.78,339.52z"></path> <path class="st5" d="M272.4,337.37c9.26-0.37,8.32,13.39,8.32,13.39v36.9c0,0-0.53,9.54-6.51,9.77 c-9.6,0.37-9.76-13.03-9.76-13.03v-34.36C264.44,350.04,263.88,337.71,272.4,337.37z M233.22,362.05 c-0.86,30.14,9.98,51.89,39.26,51.32c44.26-0.86,41.31-30.96,42.02-44.43c1.61-30.87-17.74-46.53-41.5-47.18 C248.03,321.07,233.85,339.84,233.22,362.05z"></path> <path class="st5" d="M348.57,364.01v31.92c0,0,0.06,0.96,0.36,1.27c0.3,0.3,0.91,0.54,0.91,0.54l5.08,1.82c0,0,0.65,0.37,1.08,0.9 c0.44,0.54,0.54,1.45,0.54,1.45v10.16h-44.61v-9.61c0,0-0.09-1.18,0.15-1.39c0.24-0.21,1.16-0.82,1.16-0.82l3.85-2.43 c0,0,0.58-0.37,0.62-0.48c0.04-0.12,0.03-0.86,0.03-0.86V344.6c0,0-0.26-1.75-0.54-2c-0.28-0.24-1.09-1.09-1.09-1.09l-5.49-5.74 c0,0-0.96-0.96-1.08-1.24c-0.13-0.29-0.47-1.39-0.47-1.39l0.15-12.56l36.09,0.08v15.41c0,0,24.85-41.71,55.13-48.43 c47.25-10.47,52.58,23.14,49.88,27.38c-3.24,5.09-29.53-8.3-58.19,3.3C358.02,332.14,348.57,364.01,348.57,364.01z"></path> <path class="st5" d="M395.81,344.25c0,0,1.19-6.4,6.9-6.47c5.44-0.07,6.68,7.13,6.68,7.13v9.25h-13.61L395.81,344.25z M405.56,320.33c-34.32-0.63-42.92,31-43.27,40.99c-0.42,11.86-1.47,50.92,40.15,53.05c28.51,1.45,39.32-21.01,39.32-21.01 l-11.23-9.57c0,0-8.95,11.85-18.94,12.06c-15.81,0.33-16.64-19.35-16.64-19.35v-7.28h45.36 C440.3,369.22,444.29,321.03,405.56,320.33z"></path> <path class="st5" d="M153.63,285.03h12.47v35.12c0,0-12.26,0.04-12.73,0c-0.47-0.04-1.57-0.99-2.65-2.46 c-1.26-1.71-2.08-4.01-2.58-5.25c-4.37-10.92-17.59-18.75-23.78-10.62c-13.94,18.32,17.8,27.47,23.67,30.54 c15.48,8.1,34.92,18.76,30.54,46.58c-4.93,31.34-34.31,37.66-56.25,35.63c-39.75-3.68-56.51-36.92-32.93-55.53 c23.21-18.33,57.09,14.74,45.66,22.45c-6.44,4.34-14.06-9-19.09-0.25c-8.43,14.65,17.26,24.4,26.84,13.63 c15.61-17.53-9.37-34.09-12.22-35.73c-12.76-7.32-53.89-19.69-33.27-58.38c16.95-31.8,51.11-13.55,51.11-13.55L153.63,285.03z"></path> <path class="st5" d="M312.35,308.67l0.07,8.28h-27.55l0-7.5c0,0-0.02-1.24,0.02-1.41c0.04-0.16,0.3-0.44,0.3-0.44l1.91-2.66 c0,0,0.17-0.24,0.18-0.36c0.01-0.13,0-0.43,0-0.43l0.02-29.19c0,0,0.18-4.39-3.21-5.14c-1.93-0.43-4.5,1.29-4.5,1.29v33.11 c0,0-0.04,0.22,0,0.36c0.04,0.15,0.13,0.26,0.13,0.26l1.9,2.63c0,0,0.36,0.43,0.4,0.56c0.04,0.13,0,0.38,0,0.38v7.73v0.81h-27.52 l0.04-7.93c0,0-0.12-0.73,0.06-0.98c0.18-0.25,0.79-0.91,0.79-0.91l1.69-1.94c0,0,0.62-0.54,0.6-0.61c-0.02-0.08,0-1.08,0-1.08 v-51.87c0,0-3.25,0.49-4.26,0.41c-1.61-0.13-4.87-0.41-4.87-0.41v52.28c0,0-0.06,0.57,0,0.67c0.1,0.15,0.23,0.29,0.23,0.29 l2.06,2.25c0,0,0.69,0.77,0.8,0.92c0.23,0.33,0.15,1.67,0.15,1.67v7.24h-30.02v-8.01c0,0,0.02-0.73,0.09-0.9 c0.1-0.23,0.69-0.7,0.69-0.7l2.82-2.5c0,0,0.23-0.14,0.26-0.26c0.02-0.08,0-0.5,0-0.5v-54.47c-1.56-1.39-9.78-0.26-10.75,0 c-2.93,0.79-9.79,2.77-8.76,12.09c0.89,8,17.56,9.58,17.88,12.51c0.2,1.82-4.36,11.06-22.91,5.83c-6.01-1.7-18.53-12.53-7.1-28.6 c9.5-13.36,29.51-17.43,40.37-16.63c2.9,0.21,20.57,3.28,25.15,3.45c4.1,0.15,15.42-3.04,15.42-3.04h4.67v24.95 c0,0,13.41-5.37,21.5-0.2c8.74,5.58,7.3,15.82,7.3,15.82l-0.01,28.58c0,0-0.02,0.15,0,0.23c0.02,0.07,0.2,0.18,0.2,0.18l3.05,2.65 c0,0,0.65,0.49,0.71,0.67V308.67z"></path> <path class="st5" d="M337.82,267.57c2.89,0.19,4.08,3.54,4.08,3.54v7.18h-8.58v-6.86C333.32,271.43,334.61,267.36,337.82,267.57z M362.6,284.41c-0.11-0.32-0.98-27.78-24.02-28.21c-17.27-0.32-25.66,14.61-26.6,27.78c-1.61,22.63,14.48,33.49,25.84,33.57 c16.73,0.1,24.13-14.05,24.13-14.05l-7.5-6.44c0,0-5.04,7.83-11.48,7.83c-11.62,0-10.29-14.05-10.29-14.05v-3.22h29.81 C362.49,287.62,362.7,284.73,362.6,284.41z"></path> </g> <polygon class="st1" points="124.79,296.68 157.63,311.05 175.65,322.71 192.53,307.63 204.84,265.21 221.95,238.52 331.43,300.79 428.59,360.32 426.53,393.16 327.32,402.73 246.59,391.79 206.9,401.37 141.9,349.37 108.38,318.58 "></polygon> <g> <path class="st6" d="M183.78,339.52l-9.91-0.11V328.2c0,0-0.09-1.88,0.25-2.67c0.34-0.79,1.53-1.26,1.53-1.26l7.97-2.69l1.32-0.44 v-1.67l0.02-26.25c0.02-0.06,0-0.4,0.7-1.02c0.34-0.3,0.82-0.55,0.82-0.55l27.67-3.8v36.62h19.06v14.95h-18.69v45.96 c0,0,0.35,5.25,4.87,7.38c4.81,2.27,12.32-1.03,12.32-1.03l5.23,10.46c0,0-9.19,15.56-33.47,11.47 c-20.43-3.45-19.71-24.45-19.71-24.45L183.78,339.52z"></path> <path class="st6" d="M272.4,337.37c9.26-0.37,8.32,13.39,8.32,13.39v36.9c0,0-0.53,9.54-6.51,9.77 c-9.6,0.37-9.76-13.03-9.76-13.03v-34.36C264.44,350.04,263.88,337.71,272.4,337.37z M233.22,362.05 c-0.86,30.14,9.98,51.89,39.26,51.32c44.26-0.86,41.31-30.96,42.02-44.43c1.61-30.87-17.74-46.53-41.5-47.18 C248.03,321.07,233.85,339.84,233.22,362.05z"></path> <path class="st6" d="M348.57,364.01v31.92c0,0,0.06,0.96,0.36,1.27c0.3,0.3,0.91,0.54,0.91,0.54l5.08,1.82c0,0,0.65,0.37,1.08,0.9 c0.44,0.54,0.54,1.45,0.54,1.45v10.16h-44.61v-9.61c0,0-0.09-1.18,0.15-1.39c0.24-0.21,1.16-0.82,1.16-0.82l3.85-2.43 c0,0,0.58-0.37,0.62-0.48c0.04-0.12,0.03-0.86,0.03-0.86V344.6c0,0-0.26-1.75-0.54-2c-0.28-0.24-1.09-1.09-1.09-1.09l-5.49-5.74 c0,0-0.96-0.96-1.08-1.24c-0.13-0.29-0.47-1.39-0.47-1.39l0.15-12.56l36.09,0.08v15.41c0,0,24.85-41.71,55.13-48.43 c47.25-10.47,52.58,23.14,49.88,27.38c-3.24,5.09-29.53-8.3-58.19,3.3C358.02,332.14,348.57,364.01,348.57,364.01z"></path> <path class="st6" d="M395.81,344.25c0,0,1.19-6.4,6.9-6.47c5.44-0.07,6.68,7.13,6.68,7.13v9.25h-13.61L395.81,344.25z M405.56,320.33c-34.32-0.63-42.92,31-43.27,40.99c-0.42,11.86-1.47,50.92,40.15,53.05c28.51,1.45,39.32-21.01,39.32-21.01 l-11.23-9.57c0,0-8.95,11.85-18.94,12.06c-15.81,0.33-16.64-19.35-16.64-19.35v-7.28h45.36 C440.3,369.22,444.29,321.03,405.56,320.33z"></path> <path class="st6" d="M153.63,285.03h12.47v35.12c0,0-12.26,0.04-12.73,0c-0.47-0.04-1.57-0.99-2.65-2.46 c-1.26-1.71-2.08-4.01-2.58-5.25c-4.37-10.92-17.59-18.75-23.78-10.62c-13.94,18.32,17.8,27.47,23.67,30.54 c15.48,8.1,34.92,18.76,30.54,46.58c-4.93,31.34-34.31,37.66-56.25,35.63c-39.75-3.68-56.51-36.92-32.93-55.53 c23.21-18.33,57.09,14.74,45.66,22.45c-6.44,4.34-14.06-9-19.09-0.25c-8.43,14.65,17.26,24.4,26.84,13.63 c15.61-17.53-9.37-34.09-12.22-35.73c-12.76-7.32-53.89-19.69-33.27-58.38c16.95-31.8,51.11-13.55,51.11-13.55L153.63,285.03z"></path> <path class="st6" d="M312.35,308.67l0.07,8.28h-27.55l0-7.5c0,0-0.02-1.24,0.02-1.41c0.04-0.16,0.3-0.44,0.3-0.44l1.91-2.66 c0,0,0.17-0.24,0.18-0.36c0.01-0.13,0-0.43,0-0.43l0.02-29.19c0,0,0.18-4.39-3.21-5.14c-1.93-0.43-4.5,1.29-4.5,1.29v33.11 c0,0-0.04,0.22,0,0.36c0.04,0.15,0.13,0.26,0.13,0.26l1.9,2.63c0,0,0.36,0.43,0.4,0.56c0.04,0.13,0,0.38,0,0.38v7.73v0.81h-27.52 l0.04-7.93c0,0-0.12-0.73,0.06-0.98c0.18-0.25,0.79-0.91,0.79-0.91l1.69-1.94c0,0,0.62-0.54,0.6-0.61c-0.02-0.08,0-1.08,0-1.08 v-51.87c0,0-3.25,0.49-4.26,0.41c-1.61-0.13-4.87-0.41-4.87-0.41v52.28c0,0-0.06,0.57,0,0.67c0.1,0.15,0.23,0.29,0.23,0.29 l2.06,2.25c0,0,0.69,0.77,0.8,0.92c0.23,0.33,0.15,1.67,0.15,1.67v7.24h-30.02v-8.01c0,0,0.02-0.73,0.09-0.9 c0.1-0.23,0.69-0.7,0.69-0.7l2.82-2.5c0,0,0.23-0.14,0.26-0.26c0.02-0.08,0-0.5,0-0.5v-54.47c-1.56-1.39-9.78-0.26-10.75,0 c-2.93,0.79-9.79,2.77-8.76,12.09c0.89,8,17.56,9.58,17.88,12.51c0.2,1.82-4.36,11.06-22.91,5.83c-6.01-1.7-18.53-12.53-7.1-28.6 c9.5-13.36,29.51-17.43,40.37-16.63c2.9,0.21,20.57,3.28,25.15,3.45c4.1,0.15,15.42-3.04,15.42-3.04h4.67v24.95 c0,0,13.41-5.37,21.5-0.2c8.74,5.58,7.3,15.82,7.3,15.82l-0.01,28.58c0,0-0.02,0.15,0,0.23c0.02,0.07,0.2,0.18,0.2,0.18l3.05,2.65 c0,0,0.65,0.49,0.71,0.67V308.67z"></path> <path class="st6" d="M337.82,267.57c2.89,0.19,4.08,3.54,4.08,3.54v7.18h-8.58v-6.86C333.32,271.43,334.61,267.36,337.82,267.57z M362.6,284.41c-0.11-0.32-0.98-27.78-24.02-28.21c-17.27-0.32-25.66,14.61-26.6,27.78c-1.61,22.63,14.48,33.49,25.84,33.57 c16.73,0.1,24.13-14.05,24.13-14.05l-7.5-6.44c0,0-5.04,7.83-11.48,7.83c-11.62,0-10.29-14.05-10.29-14.05v-3.22h29.81 C362.49,287.62,362.7,284.73,362.6,284.41z"></path> </g> <g> <path class="st7" d="M183.78,339.52l-9.91-0.11V328.2c0,0-0.09-1.88,0.25-2.67c0.34-0.79,1.53-1.26,1.53-1.26l7.97-2.69l1.32-0.44 v-1.67l0.02-26.25c0.02-0.06,0-0.4,0.7-1.02c0.34-0.3,0.82-0.55,0.82-0.55l27.67-3.8v36.62h19.06v14.95h-18.69v45.96 c0,0,0.35,5.25,4.87,7.38c4.81,2.27,12.32-1.03,12.32-1.03l5.23,10.46c0,0-9.19,15.56-33.47,11.47 c-20.43-3.45-19.71-24.45-19.71-24.45L183.78,339.52z"></path> <path class="st7" d="M272.4,337.37c9.26-0.37,8.32,13.39,8.32,13.39v36.9c0,0-0.53,9.54-6.51,9.77 c-9.6,0.37-9.76-13.03-9.76-13.03v-34.36C264.44,350.04,263.88,337.71,272.4,337.37z M233.22,362.05 c-0.86,30.14,9.98,51.89,39.26,51.32c44.26-0.86,41.31-30.96,42.02-44.43c1.61-30.87-17.74-46.53-41.5-47.18 C248.03,321.07,233.85,339.84,233.22,362.05z"></path> <path class="st7" d="M348.57,364.01v31.92c0,0,0.06,0.96,0.36,1.27c0.3,0.3,0.91,0.54,0.91,0.54l5.08,1.82c0,0,0.65,0.37,1.08,0.9 c0.44,0.54,0.54,1.45,0.54,1.45v10.16h-44.61v-9.61c0,0-0.09-1.18,0.15-1.39c0.24-0.21,1.16-0.82,1.16-0.82l3.85-2.43 c0,0,0.58-0.37,0.62-0.48c0.04-0.12,0.03-0.86,0.03-0.86V344.6c0,0-0.26-1.75-0.54-2c-0.28-0.24-1.09-1.09-1.09-1.09l-5.49-5.74 c0,0-0.96-0.96-1.08-1.24c-0.13-0.29-0.47-1.39-0.47-1.39l0.15-12.56l36.09,0.08v15.41c0,0,24.85-41.71,55.13-48.43 c47.25-10.47,52.58,23.14,49.88,27.38c-3.24,5.09-29.53-8.3-58.19,3.3C358.02,332.14,348.57,364.01,348.57,364.01z"></path> <path class="st7" d="M395.81,344.25c0,0,1.19-6.4,6.9-6.47c5.44-0.07,6.68,7.13,6.68,7.13v9.25h-13.61L395.81,344.25z M405.56,320.33c-34.32-0.63-42.92,31-43.27,40.99c-0.42,11.86-1.47,50.92,40.15,53.05c28.51,1.45,39.32-21.01,39.32-21.01 l-11.23-9.57c0,0-8.95,11.85-18.94,12.06c-15.81,0.33-16.64-19.35-16.64-19.35v-7.28h45.36 C440.3,369.22,444.29,321.03,405.56,320.33z"></path> <path class="st7" d="M153.63,285.03h12.47v35.12c0,0-12.26,0.04-12.73,0c-0.47-0.04-1.57-0.99-2.65-2.46 c-1.26-1.71-2.08-4.01-2.58-5.25c-4.37-10.92-17.59-18.75-23.78-10.62c-13.94,18.32,17.8,27.47,23.67,30.54 c15.48,8.1,34.92,18.76,30.54,46.58c-4.93,31.34-34.31,37.66-56.25,35.63c-39.75-3.68-56.51-36.92-32.93-55.53 c23.21-18.33,57.09,14.74,45.66,22.45c-6.44,4.34-14.06-9-19.09-0.25c-8.43,14.65,17.26,24.4,26.84,13.63 c15.61-17.53-9.37-34.09-12.22-35.73c-12.76-7.32-53.89-19.69-33.27-58.38c16.95-31.8,51.11-13.55,51.11-13.55L153.63,285.03z"></path> <path class="st7" d="M312.35,308.67l0.07,8.28h-27.55l0-7.5c0,0-0.02-1.24,0.02-1.41c0.04-0.16,0.3-0.44,0.3-0.44l1.91-2.66 c0,0,0.17-0.24,0.18-0.36c0.01-0.13,0-0.43,0-0.43l0.02-29.19c0,0,0.18-4.39-3.21-5.14c-1.93-0.43-4.5,1.29-4.5,1.29v33.11 c0,0-0.04,0.22,0,0.36c0.04,0.15,0.13,0.26,0.13,0.26l1.9,2.63c0,0,0.36,0.43,0.4,0.56c0.04,0.13,0,0.38,0,0.38v7.73v0.81h-27.52 l0.04-7.93c0,0-0.12-0.73,0.06-0.98c0.18-0.25,0.79-0.91,0.79-0.91l1.69-1.94c0,0,0.62-0.54,0.6-0.61c-0.02-0.08,0-1.08,0-1.08 v-51.87c0,0-3.25,0.49-4.26,0.41c-1.61-0.13-4.87-0.41-4.87-0.41v52.28c0,0-0.06,0.57,0,0.67c0.1,0.15,0.23,0.29,0.23,0.29 l2.06,2.25c0,0,0.69,0.77,0.8,0.92c0.23,0.33,0.15,1.67,0.15,1.67v7.24h-30.02v-8.01c0,0,0.02-0.73,0.09-0.9 c0.1-0.23,0.69-0.7,0.69-0.7l2.82-2.5c0,0,0.23-0.14,0.26-0.26c0.02-0.08,0-0.5,0-0.5v-54.47c-1.56-1.39-9.78-0.26-10.75,0 c-2.93,0.79-9.79,2.77-8.76,12.09c0.89,8,17.56,9.58,17.88,12.51c0.2,1.82-4.36,11.06-22.91,5.83c-6.01-1.7-18.53-12.53-7.1-28.6 c9.5-13.36,29.51-17.43,40.37-16.63c2.9,0.21,20.57,3.28,25.15,3.45c4.1,0.15,15.42-3.04,15.42-3.04h4.67v24.95 c0,0,13.41-5.37,21.5-0.2c8.74,5.58,7.3,15.82,7.3,15.82l-0.01,28.58c0,0-0.02,0.15,0,0.23c0.02,0.07,0.2,0.18,0.2,0.18l3.05,2.65 c0,0,0.65,0.49,0.71,0.67V308.67z"></path> <path class="st7" d="M337.82,267.57c2.89,0.19,4.08,3.54,4.08,3.54v7.18h-8.58v-6.86C333.32,271.43,334.61,267.36,337.82,267.57z M362.6,284.41c-0.11-0.32-0.98-27.78-24.02-28.21c-17.27-0.32-25.66,14.61-26.6,27.78c-1.61,22.63,14.48,33.49,25.84,33.57 c16.73,0.1,24.13-14.05,24.13-14.05l-7.5-6.44c0,0-5.04,7.83-11.48,7.83c-11.62,0-10.29-14.05-10.29-14.05v-3.22h29.81 C362.49,287.62,362.7,284.73,362.6,284.41z"></path> </g> </g> <g> <path class="st2" d="M500.57,539.97c-0.43,0.7-1.11,1.06-2.04,1.06c-0.74,0-1.33-0.42-1.76-1.26c-0.25-0.54-0.46-1.33-0.65-2.38 c-0.56-3.27-1.1-6.54-1.62-9.81c-0.62-4.01-0.93-7.31-0.93-9.91c0-1.19,0.35-1.99,1.07-2.43c0.5-0.3,1.36-0.45,2.6-0.45 c0.28,0,0.57,0,0.88,0c0.31,0,0.63,0,0.97,0c1.17,0,2.06,0.17,2.64,0.5c0.81,0.48,1.21,1.32,1.21,2.53c0,1.78-0.29,5.75-0.88,11.88 C501.47,535.83,500.98,539.26,500.57,539.97z M498.3,553.84c-1.42,0-2.62-0.55-3.6-1.64c-0.97-1.1-1.46-2.42-1.46-3.96 c0-1.58,0.47-2.93,1.41-4.06c0.95-1.13,2.16-1.68,3.64-1.68c1.42,0,2.62,0.54,3.59,1.63c0.98,1.1,1.46,2.43,1.46,4.01 c0,1.55-0.49,2.88-1.46,4.01C500.93,553.28,499.73,553.84,498.3,553.84z"></path> <path class="st2" d="M339.8,528.46c-0.16,0.2-0.39,0.38-0.7,0.53c-0.31,0.15-0.6,0.29-0.88,0.43c-0.65,0.41-1.42,1.52-2.32,3.34 c-0.37,0.78-1.15,2.55-2.31,5.31c-0.93,2.23-1.63,3.68-2.09,4.35c0.49,1.38,0.98,2.48,1.48,3.29c0.84,1.38,1.7,2.07,2.6,2.07 c0.31,0,0.87-0.25,1.67-0.76c0.8-0.51,1.29-0.76,1.48-0.76c0.53,0,0.94,0.14,1.25,0.4c0.31,0.28,0.47,0.68,0.47,1.22 c0,1.8-1.04,3.42-3.11,4.87c-1.88,1.32-3.7,1.98-5.43,1.98c-1.46,0-2.69-0.34-3.72-1.02c-1.01-0.68-2.03-1.72-3.01-3.11 c-1.48,1.45-2.98,2.5-4.5,3.16c-1.51,0.66-3.26,0.98-5.24,0.98c-3.31,0-6.01-1.01-8.11-3.02c-2.22-2.13-3.34-4.95-3.34-8.48 c0-3.09,0.69-5.65,2.09-7.67c1.09-1.55,3.02-3.28,5.81-5.2c-0.77-0.94-1.4-1.94-1.91-3c-0.49-1.07-0.73-2.17-0.73-3.31 c0-2.79,0.96-5.09,2.87-6.91c1.91-1.82,4.17-2.73,6.76-2.73c2.13,0,3.98,0.63,5.56,1.87c1.76,1.41,2.64,3.23,2.64,5.45 c0,1.19-0.39,2.62-1.16,4.35c-0.77,1.72-1.62,2.77-2.54,3.18c1.05,1.14,2.03,2.29,2.92,3.43c0.9,1.15,1.73,2.36,2.51,3.63 c0.49-0.84,0.91-1.78,1.25-2.82c0.34-1.04,0.51-2,0.51-2.88c0-0.54-0.34-1.11-1.02-1.71c-0.21-0.21-0.79-0.61-1.71-1.21l-0.14-0.7 c0-0.61,0.26-1.08,0.77-1.39c0.51-0.32,1.36-0.48,2.57-0.48h4.55c1.33,0,2.27,0.05,2.83,0.15c1.45,0.27,2.18,0.77,2.18,1.52 c0,0.2-0.09,0.48-0.28,0.86C340.12,528.02,339.95,528.29,339.8,528.46z M317.53,520.33c-0.68,0-1.32,0.24-1.93,0.73 c-0.6,0.49-0.9,1.1-0.9,1.84c0,0.81,0.6,1.6,1.81,2.37c0.19,0.1,1.1,0.56,2.73,1.36c0.4-0.64,0.71-1.19,0.93-1.66 c0.34-0.74,0.51-1.38,0.51-1.92c0-0.81-0.32-1.46-0.98-1.97C319.06,520.58,318.33,520.33,317.53,520.33z M315.17,533.59 c-0.9,1.15-1.56,2.19-1.99,3.13c-0.59,1.25-0.88,2.46-0.88,3.64c0,1.75,0.49,3.25,1.48,4.52c0.99,1.27,2.27,1.89,3.85,1.89 c0.9,0,1.72-0.15,2.48-0.45c0.76-0.3,1.57-0.78,2.44-1.41c-0.83-2.16-1.86-4.17-3.09-6.03C318.24,537,316.8,535.24,315.17,533.59z"></path> <path class="st2" d="M401.7,553.14l-4.22-0.01c-3.65,0-6.39-0.02-8.21-0.08c-1.83-0.05-2.99-0.2-3.48-0.43l-0.83-1.67 c0.28-0.91,0.91-1.77,1.9-2.57c0.52-0.4,1.06-0.82,1.62-1.26c0.15-0.47,0.28-1.08,0.37-1.82c0.09-0.74,0.14-1.41,0.14-2.02 c0-2.42-0.05-4.53-0.16-6.31c-0.11-1.78-0.3-3.7-0.58-5.75c-0.19,0.4-1.13,2.76-2.83,7.08c-1.7,4.32-3.11,7.68-4.22,10.07 c-1.58,3.37-2.74,5.04-3.48,5.04c-1.08,0-2.1-0.99-3.06-2.97c-0.03-0.07-0.62-1.56-1.76-4.49l-5.3-13.87l-0.55-1.07 c-0.34,2.19-0.59,4.51-0.74,6.96c-0.16,2.46-0.23,4.87-0.23,7.22c0,1.32,0.61,2.36,1.84,3.13c1.22,0.78,1.92,1.54,2.07,2.32 l-0.51,1.46c-0.43,0.34-0.88,0.56-1.35,0.68c-0.47,0.12-1.03,0.17-1.72,0.17h-7.15c-0.8,0-1.41-0.1-1.81-0.3 c-0.61-0.31-0.92-0.82-0.92-1.57c0-0.84,0.37-1.53,1.11-2.07c1.79-1.24,2.79-3.26,3.01-6.05c0-1.72,0.25-5.58,0.75-11.61 c0.24-2.99,0.37-5.33,0.37-7.01c0-1.81-0.67-3.15-2.02-4.01c-1.35-0.86-2.02-1.56-2.02-2.09c0-0.37,0.07-0.71,0.21-1.01 c0.14-0.3,0.35-0.65,0.63-1.06c0.46-0.17,1.15-0.29,2.06-0.35c0.91-0.07,1.82-0.1,2.71-0.1h2.78c3.5,0,6.01,0.77,7.52,2.32 c1.08,1.11,2.1,3.33,3.06,6.66c1.32,4.71,2.47,8.16,3.43,10.34c0.34-0.67,1.21-2.6,2.6-5.77c1.88-4.32,3.07-7.03,3.57-8.15 c1.23-2.8,1.95-4.28,2.13-4.45c0.47-0.45,1.07-0.74,1.81-0.89c0.74-0.15,1.53-0.22,2.36-0.22h0.56c0.53,0,1.09,0,1.69,0 c0.6,0,1.23,0,1.88,0c1.39,0,2.6,0.04,3.6,0.13c1,0.08,1.84,0.24,2.53,0.48l0.69,1.31c0,1.08-0.42,1.89-1.26,2.42 c-1.82,1.15-2.73,2.78-2.73,4.9c0,0.95-0.01,1.9-0.02,2.85c-0.01,0.96-0.03,1.93-0.03,2.91c0,4.17,0.1,7.28,0.28,9.34 c0.19,2.05,0.5,4.07,0.93,6.06c0.15,0.64,1.05,1.7,2.69,3.18c0.74,0.67,1.11,1.2,1.11,1.56c0,0.88-0.26,1.5-0.77,1.87 C403.25,552.95,402.57,553.14,401.7,553.14z"></path> <path class="st2" d="M419.56,529.8c3.23-0.11,2.91,3.98,2.91,3.98v10.97c0,0-0.18,2.84-2.28,2.9c-3.35,0.11-3.41-3.87-3.41-3.87 v-10.22C416.77,533.56,416.58,529.9,419.56,529.8z M405.86,537.14c-0.3,8.96,3.49,15.42,13.72,15.25 c15.47-0.25,14.43-9.2,14.69-13.21c0.56-9.18-6.21-13.83-14.51-14.03C411.04,524.96,406.08,530.53,405.86,537.14z"></path> <path class="st2" d="M447.27,537.72v9.49c0,0,0.03,0.28,0.13,0.38c0.1,0.09,0.32,0.16,0.32,0.16l1.78,0.54c0,0,0.22,0.11,0.38,0.27 c0.15,0.16,0.19,0.43,0.19,0.43v3.02h-15.58v-2.85c0,0-0.04-0.36,0.05-0.42l0.4-0.24l1.34-0.72l0.22-0.15l0.01-0.25v-15.42 c0,0-0.09-0.52-0.19-0.59c-0.1-0.07-0.37-0.32-0.37-0.32l-1.92-1.71l-0.38-0.37l-0.16-0.41l0.06-3.74l12.61,0.03v4.58 c0,0,8.68-12.4,19.26-14.39c16.51-3.11,18.37,6.88,17.42,8.14c-1.13,1.51-10.31-2.47-20.33,0.98 C450.57,528.25,447.27,537.72,447.27,537.72z"></path> <path class="st2" d="M463.78,531.85c0,0,0.41-1.91,2.4-1.93c1.91-0.02,2.34,2.12,2.34,2.12v2.75h-4.75L463.78,531.85z M467.18,524.73c-11.99-0.18-15,9.22-15.12,12.18c-0.15,3.53-0.52,15.14,14.03,15.77c9.96,0.43,13.73-6.25,13.73-6.25l-3.92-2.85 c0,0-3.13,3.52-6.61,3.58c-5.52,0.1-5.82-5.75-5.82-5.75v-2.16h15.85C479.33,539.27,480.72,524.95,467.18,524.73z"></path> <path class="st2" d="M69.22,542.01c-0.13,0.44-0.21,0.88-0.24,1.31c-0.03,0.44-0.05,0.96-0.05,1.57c0,0.71,0.02,1.41,0.05,2.09 c0.03,0.69,0.06,1.37,0.1,2.04c0,1.65-2.32,2.95-6.96,3.89c-3.41,0.71-6.48,1.06-9.2,1.06c-6.07,0-10.97-1.55-14.71-4.65 c-4.09-3.4-6.14-8.16-6.14-14.29c0-6.33,1.93-11.44,5.79-15.35c3.86-3.9,8.85-5.86,14.95-5.86c4.32,0,7.3,0.17,8.96,0.5 c2.53,0.5,4.39,1.67,5.58,3.51c1.18,1.84,1.78,4.82,1.78,8.96c0,0.88-0.16,1.57-0.49,2.09c-0.33,0.52-0.89,0.78-1.7,0.78 c-1.2-0.88-2.5-2.46-3.9-4.75c-2.04-3.4-5.1-5.1-9.16-5.1c-2.66,0-4.71,0.96-6.14,2.88c-1.69,2.29-2.53,6.13-2.53,11.51 c0,2.83,0.81,5.6,2.43,8.33c1.85,3.1,4.06,4.65,6.62,4.65c1.23,0,2.13-0.49,2.68-1.46c0.45-0.77,0.68-1.84,0.68-3.22 c0-1.31-0.44-2.25-1.31-2.82c-0.97-0.54-1.95-1.07-2.92-1.61l-0.29-1.06c0.23-0.74,0.7-1.23,1.41-1.48 c0.71-0.25,1.64-0.38,2.78-0.38c0.36,0,0.7,0,1.02,0c0.32,0,0.65,0,0.97,0h1.7c3.08,0,5.42,0.08,7.01,0.25 c2.92,0.3,4.38,0.88,4.38,1.72c0,0.64-0.26,1.25-0.78,1.82C70.14,540.56,69.35,541.57,69.22,542.01z"></path> <path class="st2" d="M94.35,553.01c-1.07,0-2.05-0.26-2.92-0.78c-0.88-0.52-1.7-1.27-2.48-2.25c-1.36,1.21-2.65,2.05-3.87,2.52 c-1.22,0.47-2.72,0.71-4.5,0.71c-2.27,0-4.19-0.59-5.75-1.77c-1.72-1.31-2.58-3.11-2.58-5.4c0-2.93,1.35-5.12,4.07-6.56 c1.23-0.64,3.74-1.38,7.55-2.22c2.71-0.61,4.07-1.36,4.07-2.27c0-1.68-0.15-2.78-0.44-3.28c-0.42-0.77-1.37-1.16-2.85-1.16 c-1.19,0-1.97,1.04-2.32,3.13c-0.35,2.09-1.19,3.13-2.52,3.13c-1.32,0-2.58-0.29-3.77-0.86c-1.55-0.74-2.32-1.72-2.32-2.93 c0-2.59,1.62-4.54,4.87-5.86c2.47-1.01,5.19-1.51,8.18-1.51c4.54,0,7.63,0.98,9.25,2.93c1.23,1.48,1.85,4.06,1.85,7.72 c0,1.01-0.04,2.5-0.12,4.47c-0.08,1.97-0.12,3.22-0.12,3.76c0,0.2,0.02,0.43,0.07,0.68c0.05,0.25,0.14,0.56,0.27,0.93 c0.94,0.13,1.7,0.27,2.26,0.4c0.57,0.13,0.85,0.62,0.85,1.46c0,1.48-0.78,2.71-2.34,3.69C97.33,552.57,95.87,553.01,94.35,553.01z M87.92,540.49c-2.08,0.81-3.32,1.33-3.71,1.56c-1.52,0.88-2.28,1.89-2.28,3.03c0,0.54,0.2,1.03,0.61,1.49 c0.41,0.45,0.88,0.68,1.44,0.68c1.49,0,2.52-0.31,3.09-0.93c0.57-0.62,0.85-1.72,0.85-3.31V540.49z"></path> <path class="st2" d="M114.07,553.21c-4.35,0-7.11-0.39-8.28-1.16c-1.66-1.11-2.48-3.75-2.48-7.93c0-1.51,0.73-2.27,2.19-2.27 c0.55,0.34,1.7,1.63,3.46,3.89c1.33,1.72,2.81,2.57,4.43,2.57c0.62,0,1.2-0.19,1.75-0.58c0.55-0.39,0.83-0.9,0.83-1.54 c0-0.77-1.07-1.67-3.21-2.68c-2.92-1.35-4.9-2.44-5.94-3.28c-2.18-1.72-3.26-3.8-3.26-6.26c0-3.16,1.3-5.42,3.9-6.77 c2.01-1.04,4.71-1.57,8.08-1.57c4.12,0,6.54,0.27,7.26,0.81c1.1,0.81,1.66,3.21,1.66,7.22c0,0.57-0.1,1.08-0.29,1.51 c-0.19,0.44-0.55,0.66-1.07,0.66c-0.81,0-1.96-0.93-3.43-2.8c-1.48-1.87-3.08-2.8-4.8-2.8c-0.55,0-1.06,0.15-1.53,0.46 c-0.47,0.3-0.71,0.71-0.71,1.21c0,0.84,1.1,1.72,3.31,2.63c3.08,1.28,5.16,2.32,6.23,3.13c2.24,1.72,3.36,3.94,3.36,6.67 c0,3-1.23,5.29-3.7,6.87C119.7,552.54,117.12,553.21,114.07,553.21z"></path> <path class="st2" d="M130.85,560.09c-0.54,0-0.99-0.1-1.34-0.29c-0.35-0.2-0.53-0.55-0.53-1.05c0-0.34,0.73-1.34,2.19-2.99 c0.7-0.81,1.05-1.57,1.05-2.28c0-0.42-0.49-1.1-1.48-2.04c-0.99-0.94-1.48-1.97-1.48-3.1c0-1.41,0.42-2.56,1.26-3.46 c0.84-0.9,1.95-1.35,3.33-1.35c1.3,0,2.38,0.62,3.24,1.85c0.78,1.13,1.18,2.4,1.18,3.84c0,1.97-0.76,4.2-2.27,6.7 C134.32,558.7,132.61,560.09,130.85,560.09z"></path> <path class="st2" d="M187.22,527.61l-1.17,0.46c-0.55-0.2-1.74-1.54-3.55-4.02c-1.43-1.97-4.24-2.95-8.42-2.95 c-1.23,0-2.14,0.22-2.7,0.66c-0.57,0.44-0.85,1.29-0.85,2.54v6.29c0.1,0.58,0.16,1,0.19,1.27c0.1,0.04,0.27,0.09,0.51,0.18 c0.24,0.08,0.41,0.13,0.51,0.13c3.57,0,5.81-0.67,6.72-2.02c1.2-1.78,2.13-2.79,2.78-3.03c1.14,0.3,1.7,0.96,1.7,1.97 c0,0.5-0.07,1.13-0.19,1.87c-0.29,1.68-0.44,2.76-0.44,3.23c0,0.77,0.15,2.14,0.44,4.09c0.16,1.08,0.24,1.9,0.24,2.47 c0,0.57-0.12,1.06-0.37,1.46c-0.24,0.4-0.64,0.61-1.19,0.61c-0.32,0-1.23-0.85-2.7-2.55c-1.48-1.7-3.84-2.55-7.09-2.55l-0.97,0.2v5 c0,2.16,0.84,3.7,2.53,4.65c1.69,0.94,2.53,1.8,2.53,2.58c0,0.61-0.28,1.13-0.83,1.56c-0.55,0.44-1.12,0.66-1.7,0.66h-14.85 c-1.66,0-2.76-0.22-3.31-0.66c-0.55-0.44-0.83-1.11-0.83-2.02c0-0.37,0.69-1.12,2.07-2.25c1.38-1.13,2.07-2.8,2.07-5.02v-16.96 c0-1.28-0.05-2.14-0.15-2.58c-0.19-0.88-0.65-1.57-1.36-2.07l-0.24,0.05c-0.55-0.24-1.12-0.71-1.7-1.44 c-0.58-0.72-0.88-1.37-0.88-1.94c0-1.04,1.74-1.78,5.21-2.22c2.43-0.3,5.73-0.45,9.89-0.45c1.14,0,2.17,0,3.12,0 c0.94,0,1.79,0,2.53,0c2.86,0,5.22,0.06,7.09,0.18c1.87,0.12,3.35,0.45,4.46,0.99c0.65,1.01,1.07,3.23,1.27,6.64 c0.1,1.66,0.15,2.97,0.15,3.95c-0.1,0.2-0.18,0.38-0.24,0.53C187.4,527.23,187.32,527.41,187.22,527.61z"></path> <path class="st2" d="M205.09,553.42c-4.58,0-8.13-1.18-10.66-3.53c-2.66-2.49-3.99-6.09-3.99-10.8c0-4.31,1.46-7.67,4.38-10.1 c2.66-2.22,6.14-3.33,10.42-3.33c4.19,0,7.6,1.13,10.23,3.38c2.82,2.42,4.24,5.77,4.24,10.05c0,4.71-1.28,8.28-3.85,10.7 C213.29,552.2,209.7,553.42,205.09,553.42z M205.04,531c-1.62,0-2.76,1.14-3.41,3.43c-0.39,1.41-0.58,3.26-0.58,5.55 c0,2.15,0.19,3.85,0.58,5.1c0.65,2.05,1.8,3.08,3.46,3.08c1.59,0,2.69-1.06,3.31-3.18c0.39-1.35,0.58-3.08,0.58-5.2 c0-2.49-0.15-4.31-0.44-5.45C207.97,532.11,206.8,531,205.04,531z"></path> <path class="st2" d="M237.62,553.42c-4.58,0-8.13-1.18-10.67-3.53c-2.66-2.49-3.99-6.09-3.99-10.8c0-4.31,1.46-7.67,4.38-10.1 c2.66-2.22,6.14-3.33,10.42-3.33c4.19,0,7.6,1.13,10.23,3.38c2.82,2.42,4.24,5.77,4.24,10.05c0,4.71-1.28,8.28-3.85,10.7 C245.82,552.2,242.23,553.42,237.62,553.42z M237.57,531c-1.62,0-2.76,1.14-3.41,3.43c-0.39,1.41-0.58,3.26-0.58,5.55 c0,2.15,0.19,3.85,0.58,5.1c0.65,2.05,1.8,3.08,3.46,3.08c1.59,0,2.69-1.06,3.31-3.18c0.39-1.35,0.58-3.08,0.58-5.2 c0-2.49-0.15-4.31-0.44-5.45C240.5,532.11,239.33,531,237.57,531z"></path> <path class="st2" d="M274.49,553.92c-0.65,0-1.1-0.25-1.36-0.76c-0.26-0.5-0.39-1.16-0.39-1.97c0-0.5,0.03-0.93,0.1-1.29 c0.06-0.35,0.11-0.61,0.15-0.78c-0.94,1.28-2.15,2.3-3.63,3.05c-1.48,0.76-3.01,1.14-4.6,1.14c-3.28,0-5.94-1.31-7.99-3.94 c-1.88-2.42-2.82-5.38-2.82-8.89c0-4.04,1.32-7.53,3.94-10.48c2.63-2.95,5.88-4.42,9.74-4.42c0.94,0,1.96,0.14,3.07,0.43 c0.52,0.13,1.1,0.32,1.75,0.58v-4.38c0-1.04-0.67-1.91-2-2.61c-1.33-0.7-2.06-1.37-2.19-2.01l0.44-1.11 c0.45-0.37,2.24-0.84,5.36-1.41c3.12-0.57,5.06-0.86,5.84-0.86c1.14,0,1.92,0.81,2.34,2.42c0.42,1.62,0.63,3.92,0.63,6.92 c0,1.55-0.05,3.55-0.15,6.01c-0.23,5.72-0.34,9.42-0.34,11.11l-0.1,3.03c0,2.66,0.94,4.39,2.82,5.2c0.88,0.37,1.31,0.88,1.31,1.51 c0,0.98-1.75,1.83-5.26,2.58C278.33,553.62,276.11,553.92,274.49,553.92z M268.11,530.44c-1.59,0-2.79,0.84-3.6,2.53 c-0.62,1.28-0.93,2.87-0.93,4.76c0,1.92,0.37,3.61,1.12,5.07c0.91,1.79,2.22,2.68,3.94,2.68c1.82,0,3.02-0.95,3.6-2.84 c0.32-1.05,0.49-2.77,0.49-5.17c0-2.06-0.28-3.65-0.83-4.76C271.16,531.2,269.89,530.44,268.11,530.44z"></path> </g> </svg> 